<svg width="69" height="69" viewBox="0 0 69 69" fill="none" xmlns="http://www.w3.org/2000/svg">
<path fill-rule="evenodd" clip-rule="evenodd" d="M34.5 69C53.5538 69 69 53.5538 69 34.5C69 15.4462 53.5538 0 34.5 0C15.4462 0 0 15.4462 0 34.5C0 53.5538 15.4462 69 34.5 69Z" fill="#F04037" fill-opacity="0.1"/>
<path d="M35.3467 21.8933L43.2133 25.3867C45.48 26.3867 45.48 28.04 43.2133 29.04L35.3467 32.5333C34.4533 32.9333 32.9867 32.9333 32.0933 32.5333L24.2267 29.04C21.96 28.04 21.96 26.3867 24.2267 25.3867L32.0933 21.8933C32.9867 21.4933 34.4533 21.4933 35.3467 21.8933Z" stroke="#F04037" stroke-width="2" stroke-linecap="round" stroke-linejoin="round"/>
<path d="M22 32.6667C22 33.7867 22.84 35.08 23.8667 35.5334L32.92 39.56C33.6133 39.8667 34.4 39.8667 35.08 39.56L44.1333 35.5334C45.16 35.08 46 33.7867 46 32.6667" stroke="#F04037" stroke-width="2" stroke-linecap="round" stroke-linejoin="round"/>
<path d="M22 39.3333C22 40.5733 22.7333 41.6933 23.8667 42.2L32.92 46.2266C33.6133 46.5333 34.4 46.5333 35.08 46.2266L44.1333 42.2C45.2667 41.6933 46 40.5733 46 39.3333" stroke="#F04037" stroke-width="2" stroke-linecap="round" stroke-linejoin="round"/>
</svg>
