<svg width="69" height="69" viewBox="0 0 69 69" fill="none" xmlns="http://www.w3.org/2000/svg">
<path fill-rule="evenodd" clip-rule="evenodd" d="M34.5 69C53.5538 69 69 53.5538 69 34.5C69 15.4462 53.5538 0 34.5 0C15.4462 0 0 15.4462 0 34.5C0 53.5538 15.4462 69 34.5 69Z" fill="#5454D4" fill-opacity="0.1"/>
<path d="M30 35.3333C29.12 35.7733 28.3867 36.4266 27.84 37.24C27.5333 37.7066 27.5333 38.2933 27.84 38.76C28.3867 39.5733 29.12 40.2266 30 40.6666" stroke="#5454D4" stroke-width="2" stroke-linecap="round" stroke-linejoin="round"/>
<path d="M38.28 35.3333C39.16 35.7733 39.8933 36.4266 40.44 37.24C40.7466 37.7066 40.7466 38.2933 40.44 38.76C39.8933 39.5733 39.16 40.2266 38.28 40.6666" stroke="#5454D4" stroke-width="2" stroke-linecap="round" stroke-linejoin="round"/>
<path d="M30 47.3334H38C44.6667 47.3334 47.3334 44.6667 47.3334 38V30C47.3334 23.3334 44.6667 20.6667 38 20.6667H30C23.3334 20.6667 20.6667 23.3334 20.6667 30V38C20.6667 44.6667 23.3334 47.3334 30 47.3334Z" stroke="#5454D4" stroke-width="2" stroke-linecap="round" stroke-linejoin="round"/>
<path d="M20.9733 28.68L46.6 28.6667" stroke="#5454D4" stroke-width="2" stroke-linecap="round" stroke-linejoin="round"/>
</svg>
