<svg width="69" height="69" viewBox="0 0 69 69" fill="none" xmlns="http://www.w3.org/2000/svg">
<path fill-rule="evenodd" clip-rule="evenodd" d="M34.5 69C53.5538 69 69 53.5538 69 34.5C69 15.4462 53.5538 0 34.5 0C15.4462 0 0 15.4462 0 34.5C0 53.5538 15.4462 69 34.5 69Z" fill="#FEDC5A" fill-opacity="0.1"/>
<path d="M41.2 43.6666H26.8C24.8 43.6666 24 42.8133 24 40.6933V39.3066C24 37.1866 24.8 36.3333 26.8 36.3333H41.2C43.2 36.3333 44 37.1866 44 39.3066V40.6933C44 42.8133 43.2 43.6666 41.2 43.6666Z" stroke="#FEDC5A" stroke-width="2" stroke-linecap="round" stroke-linejoin="round"/>
<path d="M38.5334 32.3333H29.4667C27.4667 32.3333 26.6667 31.48 26.6667 29.36V27.9733C26.6667 25.8533 27.4667 25 29.4667 25H38.5334C40.5334 25 41.3334 25.8533 41.3334 27.9733V29.36C41.3334 31.48 40.5334 32.3333 38.5334 32.3333Z" stroke="#FEDC5A" stroke-width="2" stroke-linecap="round" stroke-linejoin="round"/>
<path d="M34 47.3334V44.1334" stroke="#FEDC5A" stroke-width="2" stroke-linecap="round" stroke-linejoin="round"/>
<path d="M34 35.3334V32.6667" stroke="#FEDC5A" stroke-width="2" stroke-linecap="round" stroke-linejoin="round"/>
<path d="M34 20.6667V24.2534" stroke="#292D32" stroke-width="2" stroke-linecap="round" stroke-linejoin="round"/>
</svg>
