<svg width="69" height="69" viewBox="0 0 69 69" fill="none" xmlns="http://www.w3.org/2000/svg">
<path fill-rule="evenodd" clip-rule="evenodd" d="M34.5 69C53.5538 69 69 53.5538 69 34.5C69 15.4462 53.5538 0 34.5 0C15.4462 0 0 15.4462 0 34.5C0 53.5538 15.4462 69 34.5 69Z" fill="#5454D4" fill-opacity="0.1"/>
<path d="M27.0133 47.3334H40.9867C44.6667 47.3334 46.1333 45.08 46.3067 42.3334L47 31.32C47.1867 28.44 44.8933 26 42 26C41.1867 26 40.44 25.5334 40.0667 24.8134L39.1067 22.88C38.4933 21.6667 36.8933 20.6667 35.5333 20.6667H32.48C31.1067 20.6667 29.5067 21.6667 28.8933 22.88L27.9333 24.8134C27.56 25.5334 26.8133 26 26 26C23.1067 26 20.8133 28.44 21 31.32L21.6933 42.3334C21.8533 45.08 23.3333 47.3334 27.0133 47.3334Z" stroke="#5454D4" stroke-width="2" stroke-linecap="round" stroke-linejoin="round"/>
<path d="M32 28.6667H36" stroke="#5454D4" stroke-width="2" stroke-linecap="round" stroke-linejoin="round"/>
<path d="M34 42C36.3867 42 38.3333 40.0533 38.3333 37.6666C38.3333 35.28 36.3867 33.3333 34 33.3333C31.6133 33.3333 29.6667 35.28 29.6667 37.6666C29.6667 40.0533 31.6133 42 34 42Z" stroke="#5454D4" stroke-width="2" stroke-linecap="round" stroke-linejoin="round"/>
</svg>
