<svg width="69" height="69" viewBox="0 0 69 69" fill="none" xmlns="http://www.w3.org/2000/svg">
<path fill-rule="evenodd" clip-rule="evenodd" d="M34.5 69C53.5538 69 69 53.5538 69 34.5C69 15.4462 53.5538 0 34.5 0C15.4462 0 0 15.4462 0 34.5C0 53.5538 15.4462 69 34.5 69Z" fill="#F04037" fill-opacity="0.1"/>
<path d="M48.3333 40V32C48.3333 25.3334 45.6667 22.6667 39 22.6667H31C24.3333 22.6667 21.6667 25.3334 21.6667 32V40C21.6667 46.6667 24.3333 49.3334 31 49.3334H39C45.6667 49.3334 48.3333 46.6667 48.3333 40Z" stroke="#F04037" stroke-width="2" stroke-linecap="round" stroke-linejoin="round"/>
<path d="M22.36 29.48H47.64" stroke="#F04037" stroke-width="2" stroke-linecap="round" stroke-linejoin="round"/>
<path d="M30.36 22.8133V29.2933" stroke="#F04037" stroke-width="2" stroke-linecap="round" stroke-linejoin="round"/>
<path d="M39.64 22.8133V28.6933" stroke="#F04037" stroke-width="2" stroke-linecap="round" stroke-linejoin="round"/>
<path d="M32 39.2667V37.6667C32 35.6133 33.4533 34.7733 35.2267 35.8L36.6133 36.6L38 37.4C39.7733 38.4267 39.7733 40.1067 38 41.1333L36.6133 41.9333L35.2267 42.7333C33.4533 43.76 32 42.92 32 40.8667V39.2667V39.2667Z" stroke="#F04037" stroke-width="2" stroke-miterlimit="10" stroke-linecap="round" stroke-linejoin="round"/>
</svg>
